<svg xmlns="http://www.w3.org/2000/svg" viewBox="0 0 43.72 41"><defs><style>.cls-1{fill:#fff;}</style></defs><title>Asset 1</title><g id="Layer_2" data-name="Layer 2"><g id="Essentials"><path class="cls-1" d="M24.86,29v9h-6V29h6m0-3h-6a3,3,0,0,0-3,3v9a3,3,0,0,0,3,3h6a3,3,0,0,0,3-3V29a3,3,0,0,0-3-3Z"/><path class="cls-1" d="M21.86,3,40.72,19H37.86V38h-32V19H3L21.86,3m0-3a3,3,0,0,0-1.94.71l-18.86,16A3,3,0,0,0,2.86,22V38a3,3,0,0,0,3,3h32a3,3,0,0,0,3-3V22a3,3,0,0,0,1.8-5.28L23.8.72A3,3,0,0,0,21.86,0Z"/></g></g></svg>