<svg xmlns="http://www.w3.org/2000/svg" viewBox="0 0 44 44"><defs><style>.cls-1{fill:none;stroke:#000;stroke-miterlimit:10;stroke-width:3px;}</style></defs><title>Asset 2</title><g id="Layer_2" data-name="Layer 2"><g id="Essentials"><path d="M22,3A19,19,0,1,1,3,22,19,19,0,0,1,22,3m0-3A22,22,0,1,0,44,22,22,22,0,0,0,22,0Z"/><path d="M22,13.75c2.76,0,5,2.69,5,6s-2.24,6-5,6-5-2.68-5-6,2.24-6,5-6m0-3c-4.41,0-8,4-8,9s3.59,9,8,9,8-4,8-9-3.59-9-8-9Z"/><path class="cls-1" d="M8,36.75c1.46-5.24,7.88-10,14.5-10,5.8,0,11.38,4.71,13.5,9"/></g></g></svg>