<svg xmlns="http://www.w3.org/2000/svg" viewBox="0 0 24 24"><defs><style>.cls-1{fill:none;stroke:#000;stroke-linecap:round;stroke-linejoin:round;}</style></defs><title>Asset 1</title><g id="Layer_2" data-name="Layer 2"><g id="Layer_1-2" data-name="Layer 1"><path class="cls-1" d="M22.88,15.12l-7.63,7.63-3.75.75.75-3.75,7.63-7.63a2.11,2.11,0,0,1,3,0h0a2.11,2.11,0,0,1,0,3Z"/><path class="cls-1" d="M8.5,23.5h-7a1,1,0,0,1-1-1V1.5a1,1,0,0,1,1-1H14.79a1,1,0,0,1,.71.29L19.21,4.5a1,1,0,0,1,.29.71V8.5"/></g></g></svg>